<svg xmlns="http://www.w3.org/2000/svg" viewBox="0 0 64 64" role="img" aria-label="Guardrail">
  <title>Guardrail</title>
  <defs>
    <linearGradient id="b" x1="16" y1="8" x2="48" y2="56" gradientUnits="userSpaceOnUse">
      <stop offset="0" stop-color="#57a6ff"></stop>
      <stop offset="1" stop-color="#1764e8"></stop>
    </linearGradient>
    <filter id="s" x="-20%" y="-20%" width="140%" height="140%">
      <feDropShadow dx="0" dy="2" stdDeviation="1.3" flood-color="#000814" flood-opacity="0.45"></feDropShadow>
    </filter>
  </defs>

  <rect width="64" height="64" rx="14" fill="#020917"></rect>

  <g filter="url(#s)">
    
    <path d="M32 7 C25 12 18 15 11 17 V30 C11 43 20 52 32 57 C44 52 53 43 53 30 V17 C46 15 39 12 32 7 Z" fill="none" stroke="url(#b)" stroke-width="5.2" stroke-linejoin="round" stroke-linecap="round"></path>

    
    <rect x="20" y="22" width="24" height="2.6" rx="1.3" fill="#dfeeff"></rect>
    <rect x="20" y="27" width="20" height="2.6" rx="1.3" fill="#dfeeff"></rect>
    <rect x="20" y="32" width="22" height="2.6" rx="1.3" fill="#ff7a85"></rect>

    
    <rect x="13" y="39" width="38" height="4.9" rx="2.4" fill="#f8fbff"></rect>
    <rect x="13" y="47" width="38" height="4.9" rx="2.4" fill="#f8fbff"></rect>
    <circle cx="18.2" cy="41.45" r="1.25" fill="#020917"></circle>
    <circle cx="45.8" cy="41.45" r="1.25" fill="#020917"></circle>
    <circle cx="18.2" cy="49.45" r="1.25" fill="#020917"></circle>
    <circle cx="45.8" cy="49.45" r="1.25" fill="#020917"></circle>
    <rect x="16" y="52" width="3.9" height="6" rx="0.8" fill="#f8fbff"></rect>
    <rect x="44.1" y="52" width="3.9" height="6" rx="0.8" fill="#f8fbff"></rect>
  </g>
</svg>